<svg width="19" height="19" viewBox="0 0 19 19" fill="none" xmlns="http://www.w3.org/2000/svg">
<path d="M2.37533 3.95833V3.5625C2.27034 3.5625 2.16966 3.6042 2.09543 3.67844C2.0212 3.75267 1.97949 3.85335 1.97949 3.95833H2.37533ZM16.6253 3.95833H17.0212C17.0212 3.85335 16.9795 3.75267 16.9052 3.67844C16.831 3.6042 16.7303 3.5625 16.6253 3.5625V3.95833ZM2.37533 4.35417H16.6253V3.5625H2.37533V4.35417ZM16.2295 3.95833V13.4583H17.0212V3.95833H16.2295ZM15.042 14.6458H3.95866V15.4375H15.042V14.6458ZM2.77116 13.4583V3.95833H1.97949V13.4583H2.77116ZM3.95866 14.6458C3.64371 14.6458 3.34167 14.5207 3.11897 14.298C2.89627 14.0753 2.77116 13.7733 2.77116 13.4583H1.97949C1.97949 13.9832 2.18801 14.4867 2.55918 14.8578C2.93034 15.229 3.43375 15.4375 3.95866 15.4375V14.6458ZM16.2295 13.4583C16.2295 13.7733 16.1044 14.0753 15.8817 14.298C15.659 14.5207 15.3569 14.6458 15.042 14.6458V15.4375C15.5669 15.4375 16.0703 15.229 16.4415 14.8578C16.8126 14.4867 17.0212 13.9832 17.0212 13.4583H16.2295Z" fill="white"/>
<path d="M2.375 3.95801L9.5 11.083L16.625 3.95801" stroke="white" stroke-linecap="round" stroke-linejoin="round"/>
</svg>
